<svg xmlns="http://www.w3.org/2000/svg" viewBox="0 0 64 64" role="img" aria-label="TG Clinic butterfly favicon">
  <rect width="64" height="64" rx="14" fill="#F97316"/>
  <path d="M31.2 28.8C26.7 16.7 17.2 11.4 11 16.7C4.4 22.4 9.7 35.4 23.5 36.4C26.5 36.6 29.4 33.7 31.2 28.8Z" fill="#FFF7ED"/>
  <path d="M32.8 28.8C37.3 16.7 46.8 11.4 53 16.7C59.6 22.4 54.3 35.4 40.5 36.4C37.5 36.6 34.6 33.7 32.8 28.8Z" fill="#FFF7ED"/>
  <path d="M30.2 36C24.4 38.1 19.4 42.4 18.7 47.1C18 51.8 23.4 54.2 28.2 50.7C31.6 48.2 32.6 42.9 30.2 36Z" fill="#FED7AA"/>
  <path d="M33.8 36C39.6 38.1 44.6 42.4 45.3 47.1C46 51.8 40.6 54.2 35.8 50.7C32.4 48.2 31.4 42.9 33.8 36Z" fill="#FED7AA"/>
  <path d="M32 27.2C35.5 31.7 35.5 45 32 50.8C28.5 45 28.5 31.7 32 27.2Z" fill="#7C2D12"/>
  <circle cx="32" cy="25.2" r="3.8" fill="#7C2D12"/>
  <path d="M30.5 22.1C27.7 18.3 24.6 16.4 21 15.6" fill="none" stroke="#7C2D12" stroke-width="2.2" stroke-linecap="round"/>
  <path d="M33.5 22.1C36.3 18.3 39.4 16.4 43 15.6" fill="none" stroke="#7C2D12" stroke-width="2.2" stroke-linecap="round"/>
  <path d="M20.8 26.6C24.4 27.1 27.1 29.1 29 32.2" fill="none" stroke="#F97316" stroke-opacity=".42" stroke-width="2" stroke-linecap="round"/>
  <path d="M43.2 26.6C39.6 27.1 36.9 29.1 35 32.2" fill="none" stroke="#F97316" stroke-opacity=".42" stroke-width="2" stroke-linecap="round"/>
</svg>
